<svg width="56" height="38" viewBox="0 0 56 38" fill="none" xmlns="http://www.w3.org/2000/svg">
<path d="M10.36 17.08V23.4267C10.36 36.4933 45.5466 36.4933 45.5466 23.4267V17.08H10.36Z" fill="#596066"/>
<path d="M56 12.6L28 25.2L0 12.6L28 0L56 12.6Z" fill="#3E4347"/>
<path d="M27.9067 12.04C23.6133 14 14.28 18.2 13.9067 18.3867C13.72 18.48 13.5333 18.6667 13.5333 18.9467V25.2933C13.5333 26.04 14.4667 26.04 14.4667 25.2933V19.4133C18.6667 17.5467 27.72 13.44 28.0933 13.2533C28.6533 12.9733 28.4667 11.8533 27.9067 12.04Z" fill="#FFCE31"/>
<path d="M14 27.44C14.9794 27.44 15.7734 26.4371 15.7734 25.2C15.7734 23.9629 14.9794 22.96 14 22.96C13.0206 22.96 12.2267 23.9629 12.2267 25.2C12.2267 26.4371 13.0206 27.44 14 27.44Z" fill="#FFCE31"/>
<path d="M14 37.3333C14.9334 37.3333 15.7734 36.8667 15.7734 36.2133V25.2H12.2267V36.2133C12.2267 36.8667 13.0667 37.3333 14 37.3333Z" fill="#FFCE31"/>
<path d="M15.2133 25.48C15.12 25.48 15.12 25.5733 15.0266 25.5733V37.1467C15.12 37.1467 15.12 37.0533 15.2133 37.0533V25.48ZM14.4666 25.76H14.28V37.3333H14.4666V25.76ZM13.72 25.76H13.5333V37.3333H13.72V25.76ZM12.9733 25.5733C12.88 25.5733 12.88 25.48 12.7866 25.48V37.1467C12.88 37.1467 12.88 37.24 12.9733 37.24V25.5733Z" fill="#594640"/>
</svg>
