<svg width="56" height="56" viewBox="0 0 56 56" fill="none" xmlns="http://www.w3.org/2000/svg">
<path d="M5.5066 24.4537L23.1466 12.3203C23.1466 12.3203 13.0666 -1.773 8.0266 0.187003C5.59993 1.12034 3.8266 20.627 5.5066 24.4537Z" fill="#728389"/>
<path d="M6.25325 25.947L13.2533 22.587C13.2533 22.587 17.3599 11.2003 8.49325 3.08032C6.71992 4.57366 4.57325 23.2403 6.25325 25.947Z" fill="#3E4347"/>
<path d="M50.4933 24.4537L32.8533 12.3203C32.8533 12.3203 42.9333 -1.773 47.9733 0.187003C50.3999 1.12034 52.1733 20.627 50.4933 24.4537Z" fill="#728389"/>
<path d="M49.7467 25.947L42.7467 22.587C42.7467 22.587 38.6401 11.2003 47.5067 3.08032C49.2801 4.57366 51.4267 23.2403 49.7467 25.947Z" fill="#3E4347"/>
<path d="M28 7.18701C15.0267 7.18701 0 21.9337 0 32.5737C0 41.1603 24.1733 56.0003 28 56.0003C31.8267 56.0003 56 41.1603 56 32.5737C56 21.9337 40.9733 7.18701 28 7.18701Z" fill="#728389"/>
<path d="M1.8667 32.2936C2.24003 40.8803 24.2667 52.547 28 52.547C31.7334 52.547 53.76 40.8803 54.1334 32.2936C28.4667 6.62697 47.5067 49.0003 28 49.0003C8.49337 49.0003 27.5334 6.62697 1.8667 32.2936Z" fill="#DAE5EF"/>
<path d="M35.9332 43.7737C34.3466 42.747 29.4932 42.6537 27.9999 42.6537C26.5066 42.6537 21.6532 42.747 20.0666 43.7737C18.9466 44.5203 19.7866 46.2937 22.7732 47.8803C24.6399 48.8137 26.5066 49.187 27.9066 49.187C29.3999 49.187 31.1732 48.907 33.0399 47.8803C36.1199 46.2937 37.0532 44.5203 35.9332 43.7737Z" fill="#3E4347"/>
<path d="M9.24006 11.107C11.2934 12.3203 16.8934 18.2003 12.5067 21.5603C8.12006 24.9203 5.60006 21.5603 6.16006 21.0003C9.80006 17.6403 9.24006 11.107 9.24006 11.107Z" fill="#728389"/>
<path d="M7.46667 13.4403C9.61334 14.3737 15.68 19.0403 11.48 22.6803C7.28 26.3203 4.57334 23.5203 5.13334 22.867C8.49334 19.227 7.46667 13.4403 7.46667 13.4403ZM46.76 11.107C44.7067 12.3203 39.1067 18.2003 43.4933 21.5603C47.88 24.9203 50.4 21.5603 49.84 21.0003C46.2 17.6403 46.76 11.107 46.76 11.107Z" fill="#728389"/>
<path d="M48.5334 13.4403C46.3867 14.3737 40.32 19.0403 44.52 22.6803C48.72 26.3203 51.4267 23.5203 50.8667 22.867C47.5067 19.227 48.5334 13.4403 48.5334 13.4403Z" fill="#728389"/>
<path d="M18.8533 16.2403C20.8133 19.6003 24.8266 32.5737 17.2666 34.907C9.70664 37.2403 8.30664 30.2403 9.51997 29.7737C15.96 26.6937 18.8533 16.2403 18.8533 16.2403Z" fill="#DAE5EF"/>
<path d="M15.3066 18.5736C17.5466 21.467 22.68 32.947 15.4 35.747C8.02663 38.6403 6.06663 32.387 7.18663 31.827C13.3466 28.467 15.3066 18.5736 15.3066 18.5736Z" fill="#DAE5EF"/>
<path d="M19.7865 29.027C19.7865 32.107 17.2665 34.627 14.1865 34.627C11.1065 34.627 8.58655 32.107 8.58655 29.027C8.58655 25.947 11.1065 25.2937 14.1865 25.2937L19.7865 29.027Z" fill="#42ADE2"/>
<path d="M17.7333 29.027C17.7333 30.987 16.1467 32.5737 14.1867 32.5737C12.2267 32.5737 10.64 30.987 10.64 29.027C10.64 27.067 12.2267 26.4137 14.1867 26.4137C16.1467 26.3203 17.7333 26.9737 17.7333 29.027Z" fill="#3E4347"/>
<path d="M20.6267 28.6536C20.44 28.187 20.0667 27.8136 19.7867 27.5336C19.1333 26.8803 18.3867 26.3203 17.7333 25.8536C16.3333 24.9203 14.84 24.1736 13.44 23.427C12.04 22.6803 10.64 21.9336 9.42666 21.0003C8.21333 20.067 7.09333 18.947 6.25333 17.3603C6.15999 18.2003 6.34666 19.0403 6.53333 19.787C5.31999 18.667 4.19999 17.3603 3.35999 15.587C3.26666 16.8003 3.54666 18.0136 3.91999 19.1336C2.89333 18.0136 1.95999 16.707 1.21333 15.1203C1.11999 17.4536 2.05333 19.787 3.45333 21.6536C4.85333 23.5203 6.71999 24.827 8.58666 25.8536C10.4533 26.8803 12.4133 27.7203 14.3733 28.3736C15.3067 28.747 16.24 29.1203 17.1733 29.587C18.0133 30.0536 18.8533 30.5203 19.4133 31.547L20.6267 28.6536ZM37.1467 16.2403C35.1867 19.6003 31.1733 32.5736 38.7333 34.907C46.2933 37.2403 47.6933 30.2403 46.48 29.7736C40.04 26.6936 37.1467 16.2403 37.1467 16.2403Z" fill="#DAE5EF"/>
<path d="M40.6934 18.5737C38.4534 21.467 33.32 32.947 40.6 35.747C47.9734 38.6403 49.9334 32.387 48.8134 31.827C42.6534 28.467 40.6934 18.5737 40.6934 18.5737Z" fill="#DAE5EF"/>
<path d="M36.2134 29.027C36.2134 32.107 38.7334 34.627 41.8134 34.627C44.8934 34.627 47.4134 32.107 47.4134 29.027C47.4134 25.947 44.8934 25.2937 41.8134 25.2937L36.2134 29.027Z" fill="#42ADE2"/>
<path d="M38.2667 29.027C38.2667 30.987 39.8534 32.5737 41.8134 32.5737C43.7734 32.5737 45.3601 30.987 45.3601 29.027C45.3601 27.067 43.7734 26.4137 41.8134 26.4137C39.8534 26.3203 38.2667 26.9737 38.2667 29.027Z" fill="#3E4347"/>
<path d="M35.3734 28.6536C35.5601 28.187 35.9334 27.8136 36.2134 27.5336C36.8667 26.8803 37.6134 26.3203 38.2667 25.8536C39.6667 24.9203 41.1601 24.1736 42.5601 23.427C43.9601 22.6803 45.3601 21.9336 46.5734 21.0003C47.7867 20.067 48.9067 18.947 49.7467 17.3603C49.8401 18.2003 49.6534 19.0403 49.4667 19.787C50.6801 18.667 51.8001 17.3603 52.6401 15.587C52.7334 16.8003 52.4534 18.0136 52.0801 19.1336C53.1067 18.0136 54.0401 16.707 54.7867 15.1203C54.8801 17.4536 53.9467 19.787 52.5467 21.6536C51.1467 23.5203 49.2801 24.827 47.4134 25.8536C45.5467 26.8803 43.5867 27.7203 41.6267 28.3736C40.6934 28.747 39.7601 29.1203 38.8267 29.587C37.9867 30.0536 37.1467 30.5203 36.5867 31.547L35.3734 28.6536Z" fill="#DAE5EF"/>
<path d="M34.16 51.2403C34.16 52.3603 30.3333 53.387 28 53.387C25.6666 53.387 21.84 52.3603 21.84 51.2403C21.84 50.1203 28 50.587 28 50.587C28 50.587 34.16 50.2137 34.16 51.2403Z" fill="#728389"/>
<path d="M28.9333 48.067V48.4404C28.9333 48.627 28.9333 48.8137 28.84 48.907C28.7467 49.187 28.6533 49.5604 28.56 49.8404C28.28 50.4937 27.8133 51.0537 27.2533 51.427C26.04 52.1737 24.7333 51.987 23.6133 51.8004C21.3733 51.3337 19.5066 50.307 17.64 49.187C15.8666 47.9737 14.1866 46.667 12.6933 45.1737C11.2 43.6804 9.89332 42.0004 8.77332 40.227C9.98665 42.0004 11.3866 43.4937 12.9733 44.8937C14.56 46.2937 16.24 47.507 18.1066 48.4404C19.88 49.467 21.84 50.2137 23.8 50.4937C24.7333 50.587 25.76 50.4937 26.32 50.1204C26.88 49.747 27.0666 49.0004 27.0666 48.067H28.9333Z" fill="#3E4347"/>
<path d="M28.9333 47.9737C28.9333 48.907 29.12 49.6537 29.68 50.027C30.24 50.4937 31.2667 50.4937 32.2 50.4003C34.16 50.1203 36.12 49.2803 37.8933 48.347C39.6666 47.3203 41.44 46.107 43.0266 44.8003C44.6133 43.4003 46.0133 41.907 47.2266 40.1337C46.2 41.907 44.8 43.587 43.3067 45.0803C41.8133 46.5737 40.1333 47.9737 38.36 49.0937C36.5866 50.2137 34.6267 51.2403 32.3867 51.707C31.2667 51.8937 30.0533 51.987 28.7466 51.3337C28.0933 50.9603 27.6267 50.4003 27.44 49.747C27.3467 49.467 27.2533 49.0937 27.16 48.8137C27.16 48.627 27.0667 48.5337 27.0667 48.347V47.9737H28.9333Z" fill="#3E4347"/>
</svg>
