<svg width="56" height="56" viewBox="0 0 56 56" fill="none" xmlns="http://www.w3.org/2000/svg">
<path d="M28 56C43.464 56 56 43.464 56 28C56 12.536 43.464 0 28 0C12.536 0 0 12.536 0 28C0 43.464 12.536 56 28 56Z" fill="#FFDD67"/>
<path d="M16.65 24.75C19.1353 24.75 21.15 22.7353 21.15 20.25C21.15 17.7647 19.1353 15.75 16.65 15.75C14.1647 15.75 12.15 17.7647 12.15 20.25C12.15 22.7353 14.1647 24.75 16.65 24.75Z" fill="#664E27"/>
<path d="M37.35 24.75C39.8353 24.75 41.85 22.7353 41.85 20.25C41.85 17.7647 39.8353 15.75 37.35 15.75C34.8647 15.75 32.85 17.7647 32.85 20.25C32.85 22.7353 34.8647 24.75 37.35 24.75Z" fill="#664E27"/>
<path d="M42.3 32.4C42.3 31.68 41.85 30.78 40.68 30.51C37.53 29.88 32.94 29.34 27 29.34C21.06 29.34 16.47 29.97 13.32 30.51C12.15 30.78 11.7 31.68 11.7 32.4C11.7 38.97 16.74 45.54 27 45.54C37.26 45.54 42.3 38.97 42.3 32.4Z" fill="#664E27"/>
<path d="M38.43 32.67C36.45 32.31 32.31 31.77 27 31.77C21.69 31.77 17.55 32.31 15.57 32.67C14.4 32.85 14.31 33.3 14.4 34.02C14.49 34.38 14.49 34.92 14.67 35.46C14.76 36 14.94 36.27 15.84 36.18C17.55 36 36.54 36 38.25 36.18C39.15 36.27 39.24 36 39.42 35.46C39.51 34.92 39.6 34.47 39.69 34.02C39.69 33.3 39.6 32.85 38.43 32.67Z" fill="white"/>
</svg>
