<svg width="56" height="57" viewBox="0 0 56 57" fill="none" xmlns="http://www.w3.org/2000/svg">
<path d="M45.9038 2.5334C51.3044 7.93399 45.9038 22.0873 33.8922 34.192C21.8805 46.2968 7.6341 51.6043 2.23351 46.2037C-5.77427 38.1959 9.86883 34.2852 21.8805 22.1804C33.8922 10.0756 37.896 -5.56749 45.9038 2.5334Z" fill="#D9A559"/>
<path d="M23.4632 23.7632C35.0093 12.124 39.1063 -2.68108 46.4623 3.18508C46.2761 2.90574 46.0899 2.71951 45.9036 2.44017C37.8959 -5.5676 33.9851 10.0755 21.8803 22.0872C9.77553 34.1919 -5.86757 38.1027 2.23332 46.1105C2.41955 46.2967 2.69889 46.4829 2.97823 46.6692C-2.98104 39.4063 11.824 35.3093 23.4632 23.7632Z" fill="#FBBF67"/>
<path d="M48.9764 3.27821C54.377 8.6788 47.1141 22.1803 34.2644 35.03C21.4147 47.8797 7.82014 55.2356 2.41954 49.8351C-3.81907 43.5964 12.1034 38.6614 24.9531 25.8117C37.8959 12.962 42.7378 -2.96041 48.9764 3.27821Z" fill="#C94747"/>
<path d="M53.8182 10.4479C59.1257 15.7554 53.7251 29.9087 41.6204 42.0135C29.5156 54.1183 15.4554 59.4257 10.1479 54.1183C4.84045 48.8108 18.5282 42.9446 30.6329 30.933C42.6446 18.8282 48.4177 5.04735 53.8182 10.4479Z" fill="#FBBF67"/>
<path opacity="0.25" d="M48.8832 10.0755C49.535 9.70303 50.0937 9.33058 50.7454 9.23747C51.0248 6.7234 50.4661 4.67489 49.0694 3.18508C47.8589 1.9746 46.6484 1.60214 45.438 1.88148C48.6969 4.0231 49.535 6.90962 48.8832 10.0755ZM10.4272 48.2521C2.69879 50.9524 1.3952 45.3656 1.3952 45.3656C0.743401 46.8554 0.929628 48.3452 2.41945 49.835C4.00238 51.418 6.23711 51.8835 8.93741 51.5111C8.93741 50.4868 9.49609 49.4626 10.4272 48.2521Z" fill="#3E4347"/>
<path d="M38.8271 39.127C21.3217 56.6323 10.7068 54.0251 9.77563 53.7458C9.86875 53.932 10.055 54.0251 10.1481 54.2114C15.4556 59.5189 29.6088 54.1183 41.7136 42.0135C53.0735 30.5605 58.5672 17.3384 54.5633 11.3791C55.8669 16.4072 52.9804 24.8806 38.8271 39.127Z" fill="#D9A559"/>
<path opacity="0.5" d="M11.5447 40.2443C13.5932 40.7099 15.1761 41.5479 14.9899 42.0135C14.8036 42.5722 13.0345 42.5722 10.986 42.1066C8.93748 41.641 7.35455 40.803 7.54078 40.3374C7.63389 39.7787 9.40305 39.7787 11.5447 40.2443ZM16.9453 36.3335C18.9938 36.7991 20.5767 37.6371 20.3905 38.1027C20.2042 38.5683 18.4351 38.6614 16.3866 38.1027C14.3381 37.6371 12.7551 36.7991 12.9414 36.3335C13.1276 35.868 14.8968 35.868 16.9453 36.3335ZM23.1839 31.6779C25.2324 32.1434 26.8153 32.9814 26.6291 33.447C26.4429 33.9126 24.6737 34.0057 22.6252 33.5401C20.5767 33.0746 18.9938 32.2365 19.18 31.771C19.3662 31.2123 21.1354 31.2123 23.1839 31.6779ZM28.6776 26.1841C30.7261 26.6497 32.309 27.4877 32.1228 27.9533C31.9366 28.512 30.1674 28.512 28.1189 28.0464C26.0704 27.5809 24.4875 26.7428 24.6737 26.2773C24.8599 25.8117 26.6291 25.7186 28.6776 26.1841ZM34.9162 19.9455C36.9647 20.4111 38.5476 21.2491 38.3614 21.7147C38.1752 22.1803 36.406 22.2734 34.3575 21.8078C32.309 21.3422 30.7261 20.5042 30.9123 20.0386C31.0054 19.48 32.8677 19.48 34.9162 19.9455ZM40.4099 12.962C42.4584 13.4276 44.0413 14.2656 43.8551 14.7312C43.6689 15.1967 41.8997 15.2898 39.8512 14.8243C37.8027 14.3587 36.2198 13.5207 36.406 13.0551C36.4991 12.4964 38.2683 12.4964 40.4099 12.962Z" fill="#3E4347"/>
<path d="M7.91328 46.9485C8.65819 42.8515 12.4759 44.4344 14.245 41.641C15.1761 40.2443 15.6417 38.6614 16.3866 37.2647C17.0384 35.9611 19.7387 36.4267 21.1354 35.9611C24.5806 34.7506 23.0908 28.2327 27.2809 28.6051C29.2363 28.7913 31.7504 27.8602 32.0297 25.6255C32.216 24.415 32.216 23.3908 32.0297 22.2734C31.6573 18.9213 36.0336 19.48 37.6166 18.642C39.8513 17.4315 40.7824 16.0348 40.0375 13.5207C39.2926 10.9135 43.2034 13.7069 46.6486 10.2617C48.3246 8.58568 47.1141 5.69915 46.183 4.58179C44.7863 2.99885 43.6689 4.76802 43.8552 6.90963C43.9483 8.39945 41.0618 7.74765 39.8513 7.74765C39.1064 7.74765 38.0821 7.93388 37.5234 8.49256C35.8474 10.2617 37.8959 12.2171 36.7785 14.2656C35.3818 16.7797 31.9366 15.1036 29.7019 18.3626C27.4672 21.5285 29.2363 25.5324 26.1636 25.253C23.9288 25.0668 22.439 27.3015 21.4148 28.9776C20.3905 30.7467 19.9249 33.447 17.1315 33.1677C16.2004 33.0746 15.5486 33.447 14.8037 33.9126C11.8241 35.9611 13.1276 39.3132 9.03065 40.4306C5.77167 41.2686 5.11987 42.9446 4.46808 46.2036C4.37496 48.2521 7.54083 49.0901 7.91328 46.9485Z" fill="#FFCE31"/>
</svg>
