<svg width="56" height="56" viewBox="0 0 56 56" fill="none" xmlns="http://www.w3.org/2000/svg">
<path d="M28 56C43.464 56 56 43.464 56 28C56 12.536 43.464 0 28 0C12.536 0 0 12.536 0 28C0 43.464 12.536 56 28 56Z" fill="#FFDD67"/>
<path d="M35.4667 42.9333H20.5333C19.1333 42.9333 19.1333 39.2 20.5333 39.2H35.4667C36.8667 39.2 36.8667 42.9333 35.4667 42.9333ZM23.4267 28H8.49334C7.09334 28 7.09334 24.2667 8.49334 24.2667H23.4267C24.8267 24.2667 24.8267 28 23.4267 28ZM47.5067 28H32.5733C31.1733 28 31.1733 24.2667 32.5733 24.2667H47.5067C48.9067 24.2667 48.9067 28 47.5067 28Z" fill="#664E27"/>
</svg>
