<svg width="56" height="56" viewBox="0 0 56 56" fill="none" xmlns="http://www.w3.org/2000/svg">
<path d="M28 56C43.464 56 56 43.464 56 28C56 12.536 43.464 0 28 0C12.536 0 0 12.536 0 28C0 43.464 12.536 56 28 56Z" fill="#FFDD67"/>
<path d="M17.2667 25.76C19.844 25.76 21.9333 23.6707 21.9333 21.0934C21.9333 18.516 19.844 16.4267 17.2667 16.4267C14.6893 16.4267 12.6 18.516 12.6 21.0934C12.6 23.6707 14.6893 25.76 17.2667 25.76Z" fill="#664E27"/>
<path d="M38.7333 25.76C41.3107 25.76 43.4 23.6707 43.4 21.0934C43.4 18.516 41.3107 16.4267 38.7333 16.4267C36.156 16.4267 34.0667 18.516 34.0667 21.0934C34.0667 23.6707 36.156 25.76 38.7333 25.76Z" fill="#664E27"/>
<path d="M43.0267 32.6667C39.0133 38.36 34.16 39.76 28 39.76C21.84 39.76 16.9867 38.36 12.9733 32.6667C12.4133 31.92 10.92 32.3867 11.2933 33.5067C13.44 40.9734 20.6267 45.36 28.0933 45.36C35.56 45.36 42.7467 40.9734 44.8933 33.5067C45.08 32.3867 43.5867 31.92 43.0267 32.6667Z" fill="#664E27"/>
</svg>
