<svg width="56" height="57" viewBox="0 0 56 57" fill="none" xmlns="http://www.w3.org/2000/svg">
<path d="M25.1953 27.9433L26.0357 28.7836L26.2224 28.9704C26.2224 28.9704 26.2224 29.0638 26.129 29.0638C25.4754 29.9975 24.5417 31.4914 24.7284 33.3589C24.9152 35.2263 25.382 36.5335 26.2224 37.4673C26.876 38.1209 27.623 38.401 28.2766 38.4943C28.1832 38.4943 28.0898 38.5877 27.9965 38.5877C26.3158 39.2413 24.0748 40.175 23.2345 42.7895C22.9544 43.7232 22.7676 44.8436 22.5809 45.9641C22.2074 48.205 21.7405 50.7261 20.4333 52.0333C18.5659 53.9007 16.325 54.7411 13.8039 54.3676C11.3762 53.9941 8.66844 52.5935 6.42751 50.2592C4.09321 47.9249 2.69263 45.3105 2.31914 42.8828C1.94565 40.3618 2.786 38.1209 4.65344 36.2534C5.96065 34.9462 7.82809 34.2926 10.816 34.1059C16.325 33.7324 17.6322 30.4643 18.4725 28.4102C19.1261 26.7295 19.3129 26.1692 20.9936 26.0759C22.5809 25.7957 23.7947 26.5427 25.1953 27.9433ZM26.5959 26.4493C25.1019 24.9554 23.3279 23.5548 20.6201 23.8349C14.3641 24.3018 18.4725 31.3981 10.5359 31.9583C7.64135 32.145 5.02693 32.7986 3.06612 34.7595C-1.97598 39.7082 -0.38865 46.5243 4.84019 51.6598C10.069 56.8886 16.8852 58.476 21.8339 53.4339C24.355 50.9128 24.355 46.2442 25.1953 43.3497C26.3158 39.7082 32.1982 40.922 31.9181 36.907C31.9181 36.5335 31.8247 36.2534 31.638 36.16C30.891 35.4131 28.8368 37.1871 27.623 35.9733C27.1561 35.5064 26.876 34.6661 26.6893 33.1721C26.5025 30.9312 29.3037 29.2505 28.2766 28.2234C27.7163 27.6632 27.1561 27.1029 26.5959 26.4493Z" fill="#E27C17"/>
<path d="M22.4875 45.9641C22.6743 44.8436 22.861 43.8165 23.1411 42.7894C23.9815 40.175 26.2224 39.2413 27.9031 38.5877C27.9965 38.5877 28.0898 38.4943 28.1832 38.4943C27.5296 38.401 26.7826 38.1208 26.129 37.4672C25.2887 36.6269 24.8218 35.3197 24.6351 33.3589C24.4483 31.4914 25.4754 30.0908 26.0357 29.0637C26.0357 29.0637 26.0357 28.9704 26.129 28.9704L25.9423 28.7836L25.1019 27.9433C23.7014 26.5427 22.5809 25.7957 20.7134 25.8891C19.1261 25.9825 18.846 26.5427 18.1924 28.2234C17.3521 30.371 16.1382 33.5456 10.5359 33.9191C7.54798 34.1058 5.68054 34.7594 4.37333 36.0667C2.50589 37.9341 1.66554 40.175 2.03903 42.6961C2.41252 45.1237 3.8131 47.8315 6.1474 50.0725C8.4817 52.4068 11.0961 53.8074 13.5238 54.1808C16.0448 54.5543 18.2858 53.714 20.1532 51.8465C21.6472 50.6327 22.114 48.1117 22.4875 45.9641Z" fill="#FF9D27"/>
<path d="M16.6144 35.2478L18.9244 32.9359L23.5472 37.5569L21.2372 39.8679L16.6144 35.2478ZM12.1437 39.7362L14.4556 37.4252L19.0766 42.0472L16.7647 44.3581L12.1437 39.7362ZM9.36121 43.6093L10.6815 42.289L14.3127 45.9212L12.9915 47.2415L9.36121 43.6093ZM25.0085 35.6932L20.8068 31.4914L44.6166 8.98877L47.5112 11.8833L25.0085 35.6932Z" fill="#3E4347"/>
<path d="M19.2196 50.9128C20.4056 50.9128 21.3671 49.9513 21.3671 48.7653C21.3671 47.5792 20.4056 46.6177 19.2196 46.6177C18.0335 46.6177 17.072 47.5792 17.072 48.7653C17.072 49.9513 18.0335 50.9128 19.2196 50.9128Z" fill="#3E4347"/>
<path d="M14.084 53.0604C15.0122 53.0604 15.7647 52.3079 15.7647 51.3797C15.7647 50.4515 15.0122 49.699 14.084 49.699C13.1558 49.699 12.4033 50.4515 12.4033 51.3797C12.4033 52.3079 13.1558 53.0604 14.084 53.0604Z" fill="#3E4347"/>
<path d="M47.231 16.5519C46.5774 17.2055 46.2973 17.7657 46.7642 18.326C47.3244 18.8862 47.8846 18.5127 48.5383 17.8591C49.1919 17.2055 49.472 16.6453 49.0051 16.085C48.5383 15.6182 47.8846 15.9917 47.231 16.5519Z" fill="#3E4347"/>
<path d="M45.896 15.8768L46.5552 15.2167L48.0081 16.6695L47.3479 17.3297L45.896 15.8768ZM50.4992 13.3772C49.8456 14.0308 49.5655 14.5911 50.0324 15.1513C50.5926 15.7115 51.1528 15.3381 51.8065 14.6845C52.4601 14.0308 52.7402 13.4706 52.2733 12.9104C51.7131 12.4435 51.0595 12.817 50.4992 13.3772Z" fill="#3E4347"/>
<path d="M49.1732 12.6527L49.8343 11.9925L51.2862 13.4445L50.6261 14.1046L49.1732 12.6527ZM53.6738 10.2026C53.0201 10.8562 52.74 11.4164 53.2069 11.9767C53.7671 12.5369 54.3274 12.1634 54.981 11.5098C55.6346 10.8562 55.9147 10.296 55.4478 9.73575C54.8876 9.17551 54.3274 9.549 53.6738 10.2026Z" fill="#3E4347"/>
<path d="M52.3198 9.4276L52.98 8.76746L54.4328 10.2203L53.7718 10.8805L52.3198 9.4276ZM39.948 9.26887C39.2944 9.92247 38.7342 10.2026 38.1739 9.73573C37.6137 9.1755 37.9872 8.61527 38.6408 7.96166C39.2944 7.30806 39.8546 7.02794 40.4149 7.4948C40.8817 7.96166 40.5082 8.61527 39.948 9.26887Z" fill="#3E4347"/>
<path d="M39.1722 9.15216L39.8333 8.49295L41.2843 9.94675L40.6232 10.606L39.1722 9.15216ZM43.1228 6.00085C42.4692 6.65445 41.909 6.93457 41.3487 6.46771C40.7885 5.90748 41.162 5.34725 41.8156 4.69364C42.4692 4.04004 43.0294 3.75992 43.5897 4.22678C44.0565 4.78701 43.683 5.44062 43.1228 6.00085Z" fill="#3E4347"/>
<path d="M42.4534 5.92896L43.1135 5.26882L44.5654 6.72169L43.9053 7.38183L42.4534 5.92896ZM46.2975 2.82621C45.6439 3.47981 45.0837 3.8533 44.5234 3.29307C43.9632 2.73283 44.3367 2.1726 44.9903 1.519C45.6439 0.865393 46.2041 0.491904 46.7644 1.05214C47.3246 1.61237 46.9511 2.1726 46.2975 2.82621Z" fill="#3E4347"/>
<path d="M45.597 2.70387L46.2581 2.04373L47.7101 3.49567L47.0499 4.15581L45.597 2.70387Z" fill="#3E4347"/>
<path d="M49.2852 13.4706C44.2432 18.5127 42.8426 19.8199 39.7613 16.7386C36.68 13.6574 37.9872 12.2568 43.0293 7.2147C49.7521 0.491907 49.6587 -1.46891 53.8605 2.63947C57.9689 6.84121 56.008 6.74784 49.2852 13.4706Z" fill="#3E4347"/>
<path d="M48.3515 6.00084C49.0219 6.00084 49.5654 5.45739 49.5654 4.787C49.5654 4.11662 49.0219 3.57317 48.3515 3.57317C47.6811 3.57317 47.1377 4.11662 47.1377 4.787C47.1377 5.45739 47.6811 6.00084 48.3515 6.00084Z" fill="#8A959B"/>
<path d="M45.0836 9.26886C45.754 9.26886 46.2974 8.72541 46.2974 8.05502C46.2974 7.38464 45.754 6.84119 45.0836 6.84119C44.4132 6.84119 43.8698 7.38464 43.8698 8.05502C43.8698 8.72541 44.4132 9.26886 45.0836 9.26886Z" fill="#8A959B"/>
<path d="M41.9089 12.4435C42.5793 12.4435 43.1227 11.9001 43.1227 11.2297C43.1227 10.5593 42.5793 10.0158 41.9089 10.0158C41.2385 10.0158 40.6951 10.5593 40.6951 11.2297C40.6951 11.9001 41.2385 12.4435 41.9089 12.4435Z" fill="#8A959B"/>
<path d="M51.713 9.36225C52.3834 9.36225 52.9268 8.81879 52.9268 8.14841C52.9268 7.47802 52.3834 6.93457 51.713 6.93457C51.0426 6.93457 50.4991 7.47802 50.4991 8.14841C50.4991 8.81879 51.0426 9.36225 51.713 9.36225Z" fill="#8A959B"/>
<path d="M49.3786 12.2568C48.9118 12.7236 48.1648 12.7236 47.6979 12.2568C47.2311 11.7899 47.2311 11.0429 47.6979 10.5761C48.1648 10.1092 48.9118 10.1092 49.3786 10.5761C49.8455 11.0429 49.8455 11.7899 49.3786 12.2568Z" fill="#8A959B"/>
<path d="M45.2702 15.8049C45.9406 15.8049 46.4841 15.2615 46.4841 14.5911C46.4841 13.9207 45.9406 13.3772 45.2702 13.3772C44.5998 13.3772 44.0564 13.9207 44.0564 14.5911C44.0564 15.2615 44.5998 15.8049 45.2702 15.8049Z" fill="#8A959B"/>
</svg>
