<svg width="56" height="56" viewBox="0 0 56 56" fill="none" xmlns="http://www.w3.org/2000/svg">
<path d="M28 56C43.464 56 56 43.464 56 28C56 12.536 43.464 0 28 0C12.536 0 0 12.536 0 28C0 43.464 12.536 56 28 56Z" fill="#FFDD67"/>
<path d="M28 46.76C31.6083 46.76 34.5333 43.8349 34.5333 40.2267C34.5333 36.6184 31.6083 33.6934 28 33.6934C24.3917 33.6934 21.4667 36.6184 21.4667 40.2267C21.4667 43.8349 24.3917 46.76 28 46.76Z" fill="#664E27"/>
<path d="M16.9867 25.6667C19.3063 25.6667 21.1867 23.7863 21.1867 21.4667C21.1867 19.1471 19.3063 17.2667 16.9867 17.2667C14.6671 17.2667 12.7867 19.1471 12.7867 21.4667C12.7867 23.7863 14.6671 25.6667 16.9867 25.6667Z" fill="#664E27"/>
<path d="M37.9867 25.6667C40.3063 25.6667 42.1867 23.7863 42.1867 21.4667C42.1867 19.1471 40.3063 17.2667 37.9867 17.2667C35.6671 17.2667 33.7867 19.1471 33.7867 21.4667C33.7867 23.7863 35.6671 25.6667 37.9867 25.6667Z" fill="#664E27"/>
</svg>
