<svg width="56" height="57" viewBox="0 0 56 57" fill="none" xmlns="http://www.w3.org/2000/svg">
<path d="M19.2267 17.4567L20.16 19.1367H35.9334L36.5867 17.3633C36.5867 11.0167 35.0933 8.31 28.0933 8.21666C21 8.12333 19.2267 11.0167 19.2267 17.4567Z" fill="#FFB300"/>
<path d="M35.9333 17.3634C35.84 17.7367 35.84 18.11 35.6533 18.2967C35.4666 18.67 35.0933 18.8567 35.0933 18.8567C35.0933 18.8567 35.1866 18.11 35.1866 17.1767C34.8133 11.2967 34.44 14.0967 28 14.0967C21.56 14.0967 21.1866 11.2967 20.8133 17.1767C20.8133 18.2034 20.9066 18.8567 20.9066 18.8567C20.9066 18.8567 20.5333 18.67 20.3466 18.2967C20.2533 18.11 20.16 17.7367 20.0666 17.3634C19.4133 17.1767 18.6666 17.3634 18.6666 19.1367C18.6666 20.2567 19.04 21.0967 20.44 21.19C20.9066 24.83 25.8533 27.2567 28 27.2567C30.24 27.2567 35.0933 24.83 35.56 21.19C36.96 21.0967 37.3333 20.1634 37.3333 19.1367C37.3333 17.3634 36.5866 17.1767 35.9333 17.3634Z" fill="#FFDD67"/>
<path d="M24.64 20.63C25.4132 20.63 26.04 20.0032 26.04 19.23C26.04 18.4568 25.4132 17.83 24.64 17.83C23.8668 17.83 23.24 18.4568 23.24 19.23C23.24 20.0032 23.8668 20.63 24.64 20.63Z" fill="#937237"/>
<path d="M31.2667 20.63C32.0399 20.63 32.6667 20.0032 32.6667 19.23C32.6667 18.4568 32.0399 17.83 31.2667 17.83C30.4935 17.83 29.8667 18.4568 29.8667 19.23C29.8667 20.0032 30.4935 20.63 31.2667 20.63Z" fill="#937237"/>
<path d="M30.1467 23.43C28.7467 24.55 27.1601 24.55 25.8534 23.43C25.6667 23.3367 25.5734 23.5233 25.6667 23.71C26.1334 24.4567 26.9734 25.2033 28.0001 25.2033C29.1201 25.2033 29.9601 24.55 30.3334 23.71C30.5201 23.5233 30.3334 23.2433 30.1467 23.43Z" fill="#937237"/>
<path d="M26.5066 26.79V27.63C26.5066 28.0967 26.1333 28.47 25.76 28.6567H21.28V38.9233C21.28 38.9233 23.6133 40.23 28.0933 40.23C32.5733 40.23 34.9066 38.9233 34.9066 38.9233V28.6567H30.3333C29.8666 28.5633 29.5866 28.0967 29.5866 27.63V26.79H26.5066ZM44.0533 7.65665C42.4666 7.18999 41.9066 8.21665 41.5333 9.05665C41.2533 9.14999 40.9733 9.33665 40.88 9.70999L40.6933 10.3633C40.6 10.83 40.7866 11.2967 41.2533 11.4833H41.3466L38.8266 21.6567L41.5333 22.2167L44.0533 12.0433C44.6133 11.95 44.8 11.39 45.2666 9.80332C45.7333 8.12332 44.3333 7.74999 44.0533 7.65665ZM14.6533 11.39C15.12 11.2967 15.4 10.7367 15.2133 10.27L15.0266 9.61665C14.9333 9.24332 14.6533 9.05665 14.3733 8.96332C14.0933 8.12332 13.44 7.09665 11.8533 7.56332C11.5733 7.65665 10.1733 8.02999 10.64 9.70999C11.1066 11.2967 11.2933 11.8567 11.8533 11.95L14.4666 22.2167L17.1733 21.6567L14.6533 11.39Z" fill="#FFDD67"/>
<path d="M3.26672 13.2567V11.5767C3.26672 11.5767 11.4801 7.37668 28.0001 7.37668C44.5201 7.37668 52.7334 11.5767 52.7334 11.5767V13.2567C52.7334 13.2567 44.5201 9.05668 28.0001 9.05668C11.4801 9.05668 3.26672 13.2567 3.26672 13.2567Z" fill="#94989B"/>
<path d="M41.9066 9.52333C42 9.24333 41.8133 9.05667 41.6266 8.96334C41.3466 8.87 41.16 9.05667 41.0666 9.33667L40.7866 10.4567L41.6266 10.6433L41.9066 9.52333Z" fill="#FFDD67"/>
<path d="M41.6267 9.24335C41.7201 9.33669 41.7201 9.43002 41.7201 9.61669C41.7201 9.71002 41.7201 9.89668 41.6267 9.99002C41.5334 10.1767 41.5334 10.4567 41.4401 10.6434C41.4401 10.83 41.6267 10.83 41.7201 10.7367C41.8134 10.55 41.8134 10.27 41.9067 10.0834C41.9067 9.89669 42.0001 9.80335 42.0001 9.61669C42.0001 9.43002 41.9067 9.24335 41.8134 9.15002C41.7201 9.05669 41.5334 9.15002 41.6267 9.24335Z" fill="#EBA352"/>
<path d="M14.0933 9.52333C14 9.24333 14.1866 9.05667 14.3733 8.96334C14.6533 8.87 14.84 9.05667 14.9333 9.33667L15.2133 10.4567L14.3733 10.6433L14.0933 9.52333Z" fill="#FFDD67"/>
<path d="M14.3733 9.24335C14.28 9.33669 14.28 9.43002 14.28 9.61669C14.28 9.71002 14.28 9.89668 14.3733 9.99002C14.4667 10.1767 14.4667 10.4567 14.56 10.6434C14.56 10.83 14.3733 10.83 14.28 10.7367C14.1867 10.55 14.1867 10.27 14.0933 10.0834C14.0933 9.89669 14 9.80335 14 9.61669C14 9.43002 14.0933 9.24335 14.1867 9.15002C14.28 9.05669 14.4667 9.15002 14.3733 9.24335Z" fill="#EBA352"/>
<path d="M51.24 19.4167L47.7866 18.11L52.5466 4.85666L56 6.16333L51.24 19.4167Z" fill="#3E4347"/>
<path d="M47.4133 20.91L42.56 19.1367L49.1867 0.75L54.04 2.52333L47.4133 20.91ZM4.76 19.4167L8.21333 18.11L3.45333 4.85667L0 6.16333L4.76 19.4167Z" fill="#3E4347"/>
<path d="M8.58663 20.91L13.44 19.1367L6.81329 0.75L1.95996 2.52333L8.58663 20.91Z" fill="#3E4347"/>
<path d="M41.5333 22.2166L38.92 21.0966L33.6933 28.5633H30.9867C30.6133 29.9633 29.4 30.99 28 30.99C26.6 30.99 25.2933 29.9633 25.0133 28.5633H22.3067L17.08 21.0966L14.4667 22.2166L21.28 31.83V39.8567C21.28 39.8567 23.6133 41.1633 28.0933 41.1633C32.5733 41.1633 34.9067 39.8567 34.9067 39.8567V31.83L41.5333 22.2166Z" fill="#47B892"/>
<path d="M16.9867 54.23C15.68 54.23 14.6533 55.35 14.6533 56.75H21.1867V54.23H16.9867ZM39.0133 54.23C40.32 54.23 41.3467 55.35 41.3467 56.75H34.8133V54.23H39.0133Z" fill="#D3976E"/>
<path d="M37.0532 43.9634L34.8132 42.2834V39.5767C34.8132 39.5767 32.4799 40.9767 27.9999 40.9767C23.5199 40.9767 21.1866 39.5767 21.1866 39.5767V42.2834L18.9466 43.9634C17.5466 45.0834 16.9866 46.0167 16.9866 47.23V54.23H21.1866V48.7234L24.7332 45.9234C25.1999 45.55 25.7599 45.27 26.4132 45.27H29.5866C30.4266 45.27 31.3599 46.0167 31.3599 46.0167L34.8132 48.7234V54.23H39.0132V47.23C39.0132 46.0167 38.4532 44.99 37.0532 43.9634Z" fill="#3E4347"/>
</svg>
